<?xml version="1.0" encoding="UTF-8" standalone="no"?>
<svg xmlns="http://www.w3.org/2000/svg" xmlns:xlink="http://www.w3.org/1999/xlink" width="1245.748mm" height="858.959mm" viewBox="26.626038 -877.479614 1245.748047 858.959167">
    <path transform="matrix(-1,-0,-0,1,486.626038,-807.937744)" style="stroke:#000000;stroke-width:0.050000mm;fill:none" d="M-363.611053,31.811846L-368,-0L-350,-0C-349.999969,193.299713,-193.299591,350.000031,0.000004,350C193.299789,349.999939,350.000061,193.299561,350,0L368,0L363.611053,-31.811846L383.534973,-33.554962L382,0L400,0C400,220.91394,220.91394,400,-0.000017,400C-220.91394,400,-400,220.91394,-400,-0L-382,-0L-383.534973,33.554962L-363.611053,31.811846z"/>
    <path transform="matrix(-0.017975,0.999838,0.999838,0.017975,872.378479,-477.54422)" style="stroke:#000000;stroke-width:0.050000mm;fill:none" d="M-363.611053,31.811846L-368,-0L-350,-0C-349.999969,193.299713,-193.299591,350.000031,0.000004,350C193.299789,349.999939,350.000061,193.299561,350,0L368,0L363.611053,-31.811846L383.534973,-33.554962L382,0L400,0C400,220.91394,220.91394,400,-0.000017,400C-220.91394,400,-400,220.91394,-400,-0L-382,-0L-383.534973,33.554962L-363.611053,31.811846z"/>
    <path transform="matrix(-1,-0,-0,1,486.626038,-478.520447)" style="stroke:#000000;stroke-width:0.050000mm;fill:none" d="M443.306641,38.784306L442,0L460,0C459.999969,254.050995,254.050995,459.999969,-0.00002,460C-254.050995,459.999969,-459.999969,254.050995,-460,0L-442,0L-443.306641,-38.784306L-423.382751,-37.041191L-428,0L-410,0C-409.999969,226.436798,-226.436676,410.000031,0.000005,410C226.43689,409.999908,410.000061,226.436615,410,0L428,-0L423.382751,37.041191L443.306641,38.784306z"/>
    <path transform="matrix(-1,-0,-0,1,486.626038,-733.323242)" style="stroke:#000000;stroke-width:0.050000mm;fill:none" d="M443.306641,38.784306L442,0L460,0C459.999969,254.050995,254.050995,459.999969,-0.00002,460C-254.050995,459.999969,-459.999969,254.050995,-460,0L-442,0L-443.306641,-38.784306L-423.382751,-37.041191L-428,0L-410,0C-409.999969,226.436798,-226.436676,410.000031,0.000005,410C226.43689,409.999908,410.000061,226.436615,410,0L428,-0L423.382751,37.041191L443.306641,38.784306z"/>
</svg>
